<svg id="Capa_1" enable-background="new 0 0 512 512" height="512" viewBox="0 0 512 512" width="512" xmlns="http://www.w3.org/2000/svg"><g><g><g><path d="m477.488 109.871h-442.976c-9.593 0-17.379 7.776-17.379 17.379v216.961l16.888 10.553h443.959l16.888-10.553v-216.961c0-9.603-7.787-17.379-17.38-17.379z" fill="#2b3890"/><path d="m477.488 109.871h-17.64c9.593 0 17.379 7.776 17.379 17.379v227.514h.752l16.888-10.553v-216.961c.001-9.603-7.786-17.379-17.379-17.379z" fill="#242e7a"/></g><path d="m494.868 344.211v60.568c0 9.603-7.786 17.389-17.379 17.389h-442.977c-9.593 0-17.379-7.786-17.379-17.389v-60.568z" fill="#dae7ef"/><path d="m477.227 344.211v60.568c0 9.603-7.786 17.389-17.379 17.389h17.64c9.593 0 17.379-7.786 17.379-17.389v-60.568z" fill="#c1d5e4"/><g><path d="m44.047 344.216v-204.415c0-1.667 1.351-3.018 3.018-3.018h417.869c1.667 0 3.018 1.351 3.018 3.018v204.414h-423.905z" fill="#b1e4f9"/><path d="m449.121 136.783v207.433h18.831v-204.415c0-1.667-1.351-3.018-3.018-3.018z" fill="#90d8f9"/></g><g><path d="m264.985 390.916h-17.969c-4.267 0-7.726-3.459-7.726-7.726s3.459-7.726 7.726-7.726h17.969c4.268 0 7.726 3.459 7.726 7.726s-3.459 7.726-7.726 7.726z" fill="#242e7a"/></g><path d="m350.965 512h-189.93c-2.223 0-3.77-2.211-3.008-4.299l4.34-11.892c2.014-5.519 8.242-9.303 15.311-9.303h156.642c7.069 0 13.297 3.784 15.311 9.303l4.34 11.892c.764 2.088-.783 4.299-3.006 4.299z" fill="#dae7ef"/><path d="m299.433 422.168h-86.866c7.991 25.252.719 47.979-21.817 64.338h130.5c-22.536-16.359-29.808-39.087-21.817-64.338z" fill="#c1d5e4"/><path d="m212.567 422.168c2.004 6.333 3.047 12.507 3.131 18.462h80.603c.084-5.955 1.127-12.129 3.131-18.462z" fill="#98b9d3"/></g><path d="m400.185 344.216h-288.37v-341.355c0-1.58 1.281-2.861 2.861-2.861h282.648c1.58 0 2.861 1.281 2.861 2.861z" fill="#eab14d"/><path d="m379.005 0v344.216h21.179v-341.355c0-1.58-1.281-2.861-2.861-2.861z" fill="#e7a52e"/><path d="m363.833 62.248h-215.666c-3.32 0-6.011-2.691-6.011-6.011v-14.564c0-3.32 2.691-6.011 6.011-6.011h215.666c3.32 0 6.011 2.691 6.011 6.011v14.564c0 3.32-2.691 6.011-6.011 6.011z" fill="#2b3890"/><path d="m363.833 35.662h-17.459c3.32 0 6.011 2.691 6.011 6.011v14.564c0 3.32-2.691 6.011-6.011 6.011h17.459c3.32 0 6.011-2.691 6.011-6.011v-14.564c0-3.32-2.691-6.011-6.011-6.011z" fill="#242e7a"/><path d="m363.833 221.289h-215.666c-3.32 0-6.011-2.691-6.011-6.011v-14.564c0-3.32 2.691-6.011 6.011-6.011h215.666c3.32 0 6.011 2.691 6.011 6.011v14.564c0 3.32-2.691 6.011-6.011 6.011z" fill="#2b3890"/><path d="m363.833 194.704h-17.459c3.32 0 6.011 2.691 6.011 6.011v14.564c0 3.32-2.691 6.011-6.011 6.011h17.459c3.32 0 6.011-2.691 6.011-6.011v-14.564c0-3.32-2.691-6.011-6.011-6.011z" fill="#242e7a"/><g fill="#dae7ef"><circle cx="169.075" cy="133.609" r="26.919"/><circle cx="256" cy="133.609" r="26.919"/><circle cx="342.925" cy="133.609" r="26.919"/></g><path d="m169.075 106.69c-2.785 0-5.472.423-7.999 1.209 10.961 3.406 18.92 13.629 18.92 25.71s-7.959 22.304-18.92 25.71c2.527.785 5.213 1.208 7.999 1.208 14.867 0 26.919-12.052 26.919-26.919s-12.052-26.918-26.919-26.918z" fill="#c1d5e4"/><path d="m256 106.69c-2.785 0-5.472.423-7.999 1.209 10.961 3.406 18.92 13.629 18.92 25.71s-7.959 22.304-18.92 25.71c2.527.785 5.213 1.208 7.999 1.208 14.867 0 26.919-12.052 26.919-26.919s-12.052-26.918-26.919-26.918z" fill="#c1d5e4"/><path d="m342.925 106.69c-2.785 0-5.472.423-7.999 1.209 10.961 3.406 18.92 13.629 18.92 25.71s-7.959 22.304-18.92 25.71c2.527.785 5.213 1.208 7.999 1.208 14.867 0 26.919-12.052 26.919-26.919s-12.052-26.918-26.919-26.918z" fill="#c1d5e4"/><g><path d="m193.168 277.756h-51.012c-4.267 0-7.726-3.459-7.726-7.726 0-4.268 3.459-7.726 7.726-7.726h51.012c4.267 0 7.726 3.459 7.726 7.726s-3.459 7.726-7.726 7.726z" fill="#ffe07d"/></g><g><path d="m281.506 277.756h-51.012c-4.267 0-7.726-3.459-7.726-7.726 0-4.268 3.459-7.726 7.726-7.726h51.012c4.268 0 7.726 3.459 7.726 7.726s-3.459 7.726-7.726 7.726z" fill="#ffe07d"/></g><g><path d="m369.844 277.756h-51.011c-4.268 0-7.726-3.459-7.726-7.726 0-4.268 3.459-7.726 7.726-7.726h51.011c4.268 0 7.726 3.459 7.726 7.726s-3.459 7.726-7.726 7.726z" fill="#ffe07d"/></g><g><path d="m193.168 315.823h-51.012c-4.267 0-7.726-3.459-7.726-7.726s3.459-7.726 7.726-7.726h51.012c4.267 0 7.726 3.459 7.726 7.726s-3.459 7.726-7.726 7.726z" fill="#ffe07d"/></g><g><path d="m281.506 315.823h-51.012c-4.267 0-7.726-3.459-7.726-7.726s3.459-7.726 7.726-7.726h51.012c4.268 0 7.726 3.459 7.726 7.726s-3.459 7.726-7.726 7.726z" fill="#ffe07d"/></g><g><path d="m369.844 315.823h-51.011c-4.268 0-7.726-3.459-7.726-7.726s3.459-7.726 7.726-7.726h51.011c4.268 0 7.726 3.459 7.726 7.726s-3.459 7.726-7.726 7.726z" fill="#ffe07d"/></g></g></svg>